<?xml version="1.0" encoding="UTF-8" standalone="no"?>
<!DOCTYPE svg PUBLIC "-//W3C//DTD SVG 1.1//EN" "http://www.w3.org/Graphics/SVG/1.1/DTD/svg11.dtd">
<!-- Generated by graphviz version 2.40.1 (20161225.0304)
 -->
<!-- Title: AST Pages: 1 -->
<svg width="344pt" height="278pt" viewBox="0.00 0.00 344.00 278.40" xmlns="http://www.w3.org/2000/svg" xmlns:xlink="http://www.w3.org/1999/xlink">
<g id="graph0" class="graph" transform="scale(1 1) rotate(0) translate(4 274.4)">
<title>AST</title>
<polygon fill="#ffffff" stroke="transparent" points="-4,4 -4,-274.4 340,-274.4 340,4 -4,4"/>
<g id="clust1" class="cluster">
<title>cluster_1</title>
<polygon fill="none" stroke="#000000" points="8,-8 8,-262.4 328,-262.4 328,-8 8,-8"/>
<text text-anchor="middle" x="168" y="-245.8" font-family="Times,serif" font-size="14.00" fill="#000000">Binary</text>
</g>
<g id="clust2" class="cluster">
<title>cluster_2</title>
<polygon fill="none" stroke="#00ff00" points="16,-16 16,-185.6 222,-185.6 222,-16 16,-16"/>
<text text-anchor="middle" x="119" y="-169" font-family="Times,serif" font-size="14.00" fill="#000000">Get</text>
</g>
<g id="clust3" class="cluster">
<title>cluster_3</title>
<polygon fill="none" stroke="#00ff00" points="24,-24 24,-100.8 114,-100.8 114,-24 24,-24"/>
<text text-anchor="middle" x="69" y="-84.2" font-family="Times,serif" font-size="14.00" fill="#000000">Identifier</text>
</g>
<g id="clust4" class="cluster">
<title>cluster_4</title>
<polygon fill="none" stroke="#00ff00" points="122,-24 122,-100.8 214,-100.8 214,-24 122,-24"/>
<text text-anchor="middle" x="168" y="-84.2" font-family="Times,serif" font-size="14.00" fill="#000000">Field/Method</text>
</g>
<g id="clust5" class="cluster">
<title>cluster_5</title>
<polygon fill="none" stroke="#00ff00" points="230,-108.8 230,-185.6 320,-185.6 320,-108.8 230,-108.8"/>
<text text-anchor="middle" x="275" y="-169" font-family="Times,serif" font-size="14.00" fill="#000000">Literal</text>
</g>
<!-- expr_1 -->
<g id="node1" class="node">
<title>expr_1</title>
<ellipse fill="none" stroke="#000000" cx="221" cy="-211.6" rx="27" ry="18"/>
<text text-anchor="middle" x="221" y="-207.4" font-family="Times,serif" font-size="14.00" fill="#000000">=</text>
</g>
<!-- expr_2 -->
<g id="node2" class="node">
<title>expr_2</title>
<ellipse fill="none" stroke="#000000" cx="168" cy="-134.8" rx="27" ry="18"/>
<text text-anchor="middle" x="168" y="-130.6" font-family="Times,serif" font-size="14.00" fill="#000000">.</text>
</g>
<!-- expr_1&#45;&gt;expr_2 -->
<g id="edge1" class="edge">
<title>expr_1-&gt;expr_2</title>
<path fill="none" stroke="#000000" d="M209.4998,-194.9355C202.3671,-184.5999 193.0728,-171.1319 185.0885,-159.5622"/>
<polygon fill="#000000" stroke="#000000" points="187.8562,-157.4106 179.2957,-151.1681 182.0949,-161.3865 187.8562,-157.4106"/>
</g>
<!-- expr_5 -->
<g id="node5" class="node">
<title>expr_5</title>
<ellipse fill="none" stroke="#000000" cx="275" cy="-134.8" rx="36.5613" ry="18"/>
<text text-anchor="middle" x="275" y="-130.6" font-family="Times,serif" font-size="14.00" fill="#000000">Adnan</text>
</g>
<!-- expr_1&#45;&gt;expr_5 -->
<g id="edge4" class="edge">
<title>expr_1-&gt;expr_5</title>
<path fill="none" stroke="#000000" d="M232.7172,-194.9355C239.8361,-184.8109 249.0685,-171.6803 257.0894,-160.2729"/>
<polygon fill="#000000" stroke="#000000" points="260.0431,-162.1572 262.9318,-151.9637 254.3168,-158.1309 260.0431,-162.1572"/>
</g>
<!-- expr_3 -->
<g id="node3" class="node">
<title>expr_3</title>
<ellipse fill="#d3d3d3" stroke="#000000" cx="69" cy="-50" rx="36.5594" ry="18"/>
<text text-anchor="middle" x="69" y="-45.8" font-family="Times,serif" font-size="14.00" fill="#000000">person</text>
</g>
<!-- expr_2&#45;&gt;expr_3 -->
<g id="edge2" class="edge">
<title>expr_2-&gt;expr_3</title>
<path fill="none" stroke="#000000" d="M147.8487,-122.4572C138.4501,-116.3641 127.3111,-108.6474 118,-100.8 108.4342,-92.7378 98.7049,-83.0266 90.464,-74.264"/>
<polygon fill="#000000" stroke="#000000" points="92.9994,-71.8505 83.6467,-66.8729 87.854,-76.5965 92.9994,-71.8505"/>
</g>
<!-- expr_4 -->
<g id="node4" class="node">
<title>expr_4</title>
<ellipse fill="#d3d3d3" stroke="#000000" cx="168" cy="-50" rx="31.9012" ry="18"/>
<text text-anchor="middle" x="168" y="-45.8" font-family="Times,serif" font-size="14.00" fill="#000000">name</text>
</g>
<!-- expr_2&#45;&gt;expr_4 -->
<g id="edge3" class="edge">
<title>expr_2-&gt;expr_4</title>
<path fill="none" stroke="#000000" d="M168,-116.3997C168,-105.2112 168,-90.6983 168,-78.0954"/>
<polygon fill="#000000" stroke="#000000" points="171.5001,-78.0731 168,-68.0731 164.5001,-78.0731 171.5001,-78.0731"/>
</g>
</g>
</svg>