<?xml version="1.0" encoding="UTF-8" standalone="no"?>
<!DOCTYPE svg PUBLIC "-//W3C//DTD SVG 1.1//EN" "http://www.w3.org/Graphics/SVG/1.1/DTD/svg11.dtd">
<!-- Generated by graphviz version 2.40.1 (20161225.0304)
 -->
<!-- Title: AST Pages: 1 -->
<svg width="392pt" height="456pt" viewBox="0.00 0.00 392.00 456.00" xmlns="http://www.w3.org/2000/svg" xmlns:xlink="http://www.w3.org/1999/xlink">
<g id="graph0" class="graph" transform="scale(1 1) rotate(0) translate(4 452)">
<title>AST</title>
<polygon fill="#ffffff" stroke="transparent" points="-4,4 -4,-452 388,-452 388,4 -4,4"/>
<g id="clust1" class="cluster">
<title>cluster_1</title>
<polygon fill="none" stroke="#000000" points="8,-8 8,-440 376,-440 376,-8 8,-8"/>
<text text-anchor="middle" x="192" y="-423.4" font-family="Times,serif" font-size="14.00" fill="#000000">Binary</text>
</g>
<g id="clust2" class="cluster">
<title>cluster_2</title>
<polygon fill="none" stroke="#00ff00" points="16,-286.4 16,-363.2 86,-363.2 86,-286.4 16,-286.4"/>
<text text-anchor="middle" x="51" y="-346.6" font-family="Times,serif" font-size="14.00" fill="#000000">Literal</text>
</g>
<g id="clust3" class="cluster">
<title>cluster_3</title>
<polygon fill="none" stroke="#000000" points="94,-16 94,-363.2 368,-363.2 368,-16 94,-16"/>
<text text-anchor="middle" x="231" y="-346.6" font-family="Times,serif" font-size="14.00" fill="#000000">Grouping</text>
</g>
<g id="clust4" class="cluster">
<title>cluster_4</title>
<polygon fill="none" stroke="#000000" points="102,-24 102,-278.4 360,-278.4 360,-24 102,-24"/>
<text text-anchor="middle" x="231" y="-261.8" font-family="Times,serif" font-size="14.00" fill="#000000">Binary</text>
</g>
<g id="clust5" class="cluster">
<title>cluster_5</title>
<polygon fill="none" stroke="#000000" points="110,-32 110,-201.6 274,-201.6 274,-32 110,-32"/>
<text text-anchor="middle" x="192" y="-185" font-family="Times,serif" font-size="14.00" fill="#000000">Binary</text>
</g>
<g id="clust6" class="cluster">
<title>cluster_6</title>
<polygon fill="none" stroke="#00ff00" points="118,-40 118,-116.8 188,-116.8 188,-40 118,-40"/>
<text text-anchor="middle" x="153" y="-100.2" font-family="Times,serif" font-size="14.00" fill="#000000">Literal</text>
</g>
<g id="clust7" class="cluster">
<title>cluster_7</title>
<polygon fill="none" stroke="#00ff00" points="196,-40 196,-116.8 266,-116.8 266,-40 196,-40"/>
<text text-anchor="middle" x="231" y="-100.2" font-family="Times,serif" font-size="14.00" fill="#000000">Literal</text>
</g>
<g id="clust8" class="cluster">
<title>cluster_8</title>
<polygon fill="none" stroke="#00ff00" points="282,-124.8 282,-201.6 352,-201.6 352,-124.8 282,-124.8"/>
<text text-anchor="middle" x="317" y="-185" font-family="Times,serif" font-size="14.00" fill="#000000">Literal</text>
</g>
<!-- expr_1 -->
<g id="node1" class="node">
<title>expr_1</title>
<ellipse fill="none" stroke="#000000" cx="96" cy="-389.2" rx="27" ry="18"/>
<text text-anchor="middle" x="96" y="-385" font-family="Times,serif" font-size="14.00" fill="#000000">*</text>
</g>
<!-- expr_2 -->
<g id="node2" class="node">
<title>expr_2</title>
<ellipse fill="none" stroke="#000000" cx="51" cy="-312.4" rx="27" ry="18"/>
<text text-anchor="middle" x="51" y="-308.2" font-family="Times,serif" font-size="14.00" fill="#000000">2</text>
</g>
<!-- expr_1&#45;&gt;expr_2 -->
<g id="edge1" class="edge">
<title>expr_1-&gt;expr_2</title>
<path fill="none" stroke="#000000" d="M86.013,-372.1556C80.1871,-362.2126 72.7199,-349.4686 66.1791,-338.3056"/>
<polygon fill="#000000" stroke="#000000" points="69.0344,-336.2553 60.959,-329.3968 62.9948,-339.7942 69.0344,-336.2553"/>
</g>
<!-- expr_3 -->
<g id="node3" class="node">
<title>expr_3</title>
<ellipse fill="none" stroke="#000000" cx="141" cy="-312.4" rx="27" ry="18"/>
<text text-anchor="middle" x="141" y="-308.2" font-family="Times,serif" font-size="14.00" fill="#000000">()</text>
</g>
<!-- expr_1&#45;&gt;expr_3 -->
<g id="edge2" class="edge">
<title>expr_1-&gt;expr_3</title>
<path fill="none" stroke="#000000" d="M105.987,-372.1556C111.8129,-362.2126 119.2801,-349.4686 125.8209,-338.3056"/>
<polygon fill="#000000" stroke="#000000" points="129.0052,-339.7942 131.041,-329.3968 122.9656,-336.2553 129.0052,-339.7942"/>
</g>
<!-- expr_4 -->
<g id="node4" class="node">
<title>expr_4</title>
<ellipse fill="none" stroke="#000000" cx="192" cy="-227.6" rx="27" ry="18"/>
<text text-anchor="middle" x="192" y="-223.4" font-family="Times,serif" font-size="14.00" fill="#000000">+</text>
</g>
<!-- expr_3&#45;&gt;expr_4 -->
<g id="edge3" class="edge">
<title>expr_3-&gt;expr_4</title>
<path fill="none" stroke="#000000" d="M151.076,-295.6462C158.4104,-283.451 168.4717,-266.7216 176.7826,-252.9027"/>
<polygon fill="#000000" stroke="#000000" points="179.7904,-254.6924 181.945,-244.3189 173.7917,-251.0847 179.7904,-254.6924"/>
</g>
<!-- expr_5 -->
<g id="node5" class="node">
<title>expr_5</title>
<ellipse fill="none" stroke="#000000" cx="192" cy="-150.8" rx="27" ry="18"/>
<text text-anchor="middle" x="192" y="-146.6" font-family="Times,serif" font-size="14.00" fill="#000000">/</text>
</g>
<!-- expr_4&#45;&gt;expr_5 -->
<g id="edge4" class="edge">
<title>expr_4-&gt;expr_5</title>
<path fill="none" stroke="#000000" d="M192,-209.3995C192,-200.3132 192,-189.1176 192,-178.9549"/>
<polygon fill="#000000" stroke="#000000" points="195.5001,-178.8698 192,-168.8699 188.5001,-178.8699 195.5001,-178.8698"/>
</g>
<!-- expr_8 -->
<g id="node8" class="node">
<title>expr_8</title>
<ellipse fill="none" stroke="#000000" cx="317" cy="-150.8" rx="27" ry="18"/>
<text text-anchor="middle" x="317" y="-146.6" font-family="Times,serif" font-size="14.00" fill="#000000">1</text>
</g>
<!-- expr_4&#45;&gt;expr_8 -->
<g id="edge7" class="edge">
<title>expr_4-&gt;expr_8</title>
<path fill="none" stroke="#000000" d="M218.6851,-223.9217C236.686,-220.4386 260.2933,-213.8395 278,-201.6 287.4264,-195.0841 295.5839,-185.5811 301.9664,-176.5523"/>
<polygon fill="#000000" stroke="#000000" points="304.9243,-178.4246 307.5253,-168.154 299.0872,-174.561 304.9243,-178.4246"/>
</g>
<!-- expr_6 -->
<g id="node6" class="node">
<title>expr_6</title>
<ellipse fill="none" stroke="#000000" cx="153" cy="-66" rx="27" ry="18"/>
<text text-anchor="middle" x="153" y="-61.8" font-family="Times,serif" font-size="14.00" fill="#000000">10</text>
</g>
<!-- expr_5&#45;&gt;expr_6 -->
<g id="edge5" class="edge">
<title>expr_5-&gt;expr_6</title>
<path fill="none" stroke="#000000" d="M183.9192,-133.2294C178.4972,-121.4401 171.2566,-105.6965 165.1453,-92.4082"/>
<polygon fill="#000000" stroke="#000000" points="168.2953,-90.8808 160.937,-83.258 161.9356,-93.8056 168.2953,-90.8808"/>
</g>
<!-- expr_7 -->
<g id="node7" class="node">
<title>expr_7</title>
<ellipse fill="none" stroke="#000000" cx="231" cy="-66" rx="27" ry="18"/>
<text text-anchor="middle" x="231" y="-61.8" font-family="Times,serif" font-size="14.00" fill="#000000">3</text>
</g>
<!-- expr_5&#45;&gt;expr_7 -->
<g id="edge6" class="edge">
<title>expr_5-&gt;expr_7</title>
<path fill="none" stroke="#000000" d="M200.0808,-133.2294C205.5028,-121.4401 212.7434,-105.6965 218.8547,-92.4082"/>
<polygon fill="#000000" stroke="#000000" points="222.0644,-93.8056 223.063,-83.258 215.7047,-90.8808 222.0644,-93.8056"/>
</g>
</g>
</svg>